<?xml version="1.0" encoding="UTF-8" standalone="no"?>
<!-- Created with Inkscape (http://www.inkscape.org/) -->

<svg
   xmlns:dc="http://purl.org/dc/elements/1.1/"
   xmlns:cc="http://creativecommons.org/ns#"
   xmlns:rdf="http://www.w3.org/1999/02/22-rdf-syntax-ns#"
   xmlns:svg="http://www.w3.org/2000/svg"
   xmlns="http://www.w3.org/2000/svg"
   xmlns:sodipodi="http://sodipodi.sourceforge.net/DTD/sodipodi-0.dtd"
   xmlns:inkscape="http://www.inkscape.org/namespaces/inkscape"
   width="2289.6201"
   height="1270.34"
   id="svg2"
   version="1.1"
   inkscape:version="0.48.4 r9939"
   sodipodi:docname="bg.svg">
  <defs
     id="defs4">
    <inkscape:path-effect
       effect="skeletal"
       id="path-effect3294"
       is_visible="true"
       pattern="M 0,5 C 0,2.24 2.24,0 5,0 7.76,0 10,2.24 10,5 10,7.76 7.76,10 5,10 2.24,10 0,7.76 0,5 z"
       copytype="single_stretched"
       prop_scale="1"
       scale_y_rel="false"
       spacing="0"
       normal_offset="0"
       tang_offset="0"
       prop_units="false"
       vertical_pattern="false"
       fuse_tolerance="0" />
    <inkscape:path-effect
       effect="skeletal"
       id="path-effect3290"
       is_visible="true"
       pattern="M 0,5 C 0,2.24 2.24,0 5,0 7.76,0 10,2.24 10,5 10,7.76 7.76,10 5,10 2.24,10 0,7.76 0,5 z"
       copytype="single_stretched"
       prop_scale="1"
       scale_y_rel="false"
       spacing="0"
       normal_offset="0"
       tang_offset="0"
       prop_units="false"
       vertical_pattern="false"
       fuse_tolerance="0" />
    <inkscape:path-effect
       effect="skeletal"
       id="path-effect3286"
       is_visible="true"
       pattern="M 0,5 C 0,2.24 2.24,0 5,0 7.76,0 10,2.24 10,5 10,7.76 7.76,10 5,10 2.24,10 0,7.76 0,5 z"
       copytype="single_stretched"
       prop_scale="1"
       scale_y_rel="false"
       spacing="0"
       normal_offset="0"
       tang_offset="0"
       prop_units="false"
       vertical_pattern="false"
       fuse_tolerance="0" />
    <inkscape:path-effect
       effect="skeletal"
       id="path-effect3282"
       is_visible="true"
       pattern="M 0,5 C 0,2.24 2.24,0 5,0 7.76,0 10,2.24 10,5 10,7.76 7.76,10 5,10 2.24,10 0,7.76 0,5 z"
       copytype="single_stretched"
       prop_scale="1"
       scale_y_rel="false"
       spacing="0"
       normal_offset="0"
       tang_offset="0"
       prop_units="false"
       vertical_pattern="false"
       fuse_tolerance="0" />
    <inkscape:path-effect
       effect="skeletal"
       id="path-effect3278"
       is_visible="true"
       pattern="M 0,5 C 0,2.24 2.24,0 5,0 7.76,0 10,2.24 10,5 10,7.76 7.76,10 5,10 2.24,10 0,7.76 0,5 z"
       copytype="single_stretched"
       prop_scale="1"
       scale_y_rel="false"
       spacing="0"
       normal_offset="0"
       tang_offset="0"
       prop_units="false"
       vertical_pattern="false"
       fuse_tolerance="0" />
    <inkscape:path-effect
       effect="skeletal"
       id="path-effect3274"
       is_visible="true"
       pattern="M 0,5 C 0,2.24 2.24,0 5,0 7.76,0 10,2.24 10,5 10,7.76 7.76,10 5,10 2.24,10 0,7.76 0,5 z"
       copytype="single_stretched"
       prop_scale="1"
       scale_y_rel="false"
       spacing="0"
       normal_offset="0"
       tang_offset="0"
       prop_units="false"
       vertical_pattern="false"
       fuse_tolerance="0" />
    <inkscape:path-effect
       effect="skeletal"
       id="path-effect3270"
       is_visible="true"
       pattern="M 0,5 C 0,2.24 2.24,0 5,0 7.76,0 10,2.24 10,5 10,7.76 7.76,10 5,10 2.24,10 0,7.76 0,5 z"
       copytype="single_stretched"
       prop_scale="1"
       scale_y_rel="false"
       spacing="0"
       normal_offset="0"
       tang_offset="0"
       prop_units="false"
       vertical_pattern="false"
       fuse_tolerance="0" />
    <inkscape:path-effect
       effect="skeletal"
       id="path-effect3266"
       is_visible="true"
       pattern="M 0,5 C 0,2.24 2.24,0 5,0 7.76,0 10,2.24 10,5 10,7.76 7.76,10 5,10 2.24,10 0,7.76 0,5 z"
       copytype="single_stretched"
       prop_scale="1"
       scale_y_rel="false"
       spacing="0"
       normal_offset="0"
       tang_offset="0"
       prop_units="false"
       vertical_pattern="false"
       fuse_tolerance="0" />
    <inkscape:path-effect
       effect="skeletal"
       id="path-effect3262"
       is_visible="true"
       pattern="M 0,5 C 0,2.24 2.24,0 5,0 7.76,0 10,2.24 10,5 10,7.76 7.76,10 5,10 2.24,10 0,7.76 0,5 z"
       copytype="single_stretched"
       prop_scale="1"
       scale_y_rel="false"
       spacing="0"
       normal_offset="0"
       tang_offset="0"
       prop_units="false"
       vertical_pattern="false"
       fuse_tolerance="0" />
    <inkscape:path-effect
       effect="skeletal"
       id="path-effect3258"
       is_visible="true"
       pattern="M 0,5 C 0,2.24 2.24,0 5,0 7.76,0 10,2.24 10,5 10,7.76 7.76,10 5,10 2.24,10 0,7.76 0,5 z"
       copytype="single_stretched"
       prop_scale="1"
       scale_y_rel="false"
       spacing="0"
       normal_offset="0"
       tang_offset="0"
       prop_units="false"
       vertical_pattern="false"
       fuse_tolerance="0" />
    <inkscape:path-effect
       effect="skeletal"
       id="path-effect3254"
       is_visible="true"
       pattern="M 0,5 C 0,2.24 2.24,0 5,0 7.76,0 10,2.24 10,5 10,7.76 7.76,10 5,10 2.24,10 0,7.76 0,5 z"
       copytype="single_stretched"
       prop_scale="1"
       scale_y_rel="false"
       spacing="0"
       normal_offset="0"
       tang_offset="0"
       prop_units="false"
       vertical_pattern="false"
       fuse_tolerance="0" />
    <inkscape:path-effect
       effect="skeletal"
       id="path-effect3250"
       is_visible="true"
       pattern="M 0,5 C 0,2.24 2.24,0 5,0 7.76,0 10,2.24 10,5 10,7.76 7.76,10 5,10 2.24,10 0,7.76 0,5 z"
       copytype="single_stretched"
       prop_scale="1"
       scale_y_rel="false"
       spacing="0"
       normal_offset="0"
       tang_offset="0"
       prop_units="false"
       vertical_pattern="false"
       fuse_tolerance="0" />
    <inkscape:path-effect
       effect="skeletal"
       id="path-effect3246"
       is_visible="true"
       pattern="M 0,5 C 0,2.24 2.24,0 5,0 7.76,0 10,2.24 10,5 10,7.76 7.76,10 5,10 2.24,10 0,7.76 0,5 z"
       copytype="single_stretched"
       prop_scale="1"
       scale_y_rel="false"
       spacing="0"
       normal_offset="0"
       tang_offset="0"
       prop_units="false"
       vertical_pattern="false"
       fuse_tolerance="0" />
    <inkscape:path-effect
       effect="skeletal"
       id="path-effect3242"
       is_visible="true"
       pattern="M 0,5 C 0,2.24 2.24,0 5,0 7.76,0 10,2.24 10,5 10,7.76 7.76,10 5,10 2.24,10 0,7.76 0,5 z"
       copytype="single_stretched"
       prop_scale="1"
       scale_y_rel="false"
       spacing="0"
       normal_offset="0"
       tang_offset="0"
       prop_units="false"
       vertical_pattern="false"
       fuse_tolerance="0" />
    <inkscape:path-effect
       effect="skeletal"
       id="path-effect3238"
       is_visible="true"
       pattern="M 0,5 C 0,2.24 2.24,0 5,0 7.76,0 10,2.24 10,5 10,7.76 7.76,10 5,10 2.24,10 0,7.76 0,5 z"
       copytype="single_stretched"
       prop_scale="1"
       scale_y_rel="false"
       spacing="0"
       normal_offset="0"
       tang_offset="0"
       prop_units="false"
       vertical_pattern="false"
       fuse_tolerance="0" />
    <inkscape:path-effect
       effect="skeletal"
       id="path-effect3234"
       is_visible="true"
       pattern="M 0,5 C 0,2.24 2.24,0 5,0 7.76,0 10,2.24 10,5 10,7.76 7.76,10 5,10 2.24,10 0,7.76 0,5 z"
       copytype="single_stretched"
       prop_scale="1"
       scale_y_rel="false"
       spacing="0"
       normal_offset="0"
       tang_offset="0"
       prop_units="false"
       vertical_pattern="false"
       fuse_tolerance="0" />
    <inkscape:path-effect
       effect="skeletal"
       id="path-effect3230"
       is_visible="true"
       pattern="M 0,5 C 0,2.24 2.24,0 5,0 7.76,0 10,2.24 10,5 10,7.76 7.76,10 5,10 2.24,10 0,7.76 0,5 z"
       copytype="single_stretched"
       prop_scale="1"
       scale_y_rel="false"
       spacing="0"
       normal_offset="0"
       tang_offset="0"
       prop_units="false"
       vertical_pattern="false"
       fuse_tolerance="0" />
  </defs>
  <sodipodi:namedview
     id="base"
     pagecolor="#ffffff"
     bordercolor="#666666"
     borderopacity="1.0"
     inkscape:pageopacity="0.0"
     inkscape:pageshadow="2"
     inkscape:zoom="0.35"
     inkscape:cx="1170.0312"
     inkscape:cy="746.45036"
     inkscape:document-units="px"
     inkscape:current-layer="layer1"
     showgrid="false"
     fit-margin-top="0"
     fit-margin-left="0"
     fit-margin-right="0"
     fit-margin-bottom="0"
     inkscape:window-width="1366"
     inkscape:window-height="692"
     inkscape:window-x="0"
     inkscape:window-y="24"
     inkscape:window-maximized="1" />
  <metadata
     id="metadata7">
    <rdf:RDF>
      <cc:Work
         rdf:about="">
        <dc:format>image/svg+xml</dc:format>
        <dc:type
           rdf:resource="http://purl.org/dc/dcmitype/StillImage" />
        <dc:title></dc:title>
      </cc:Work>
    </rdf:RDF>
  </metadata>
  <g
     inkscape:label="Layer 1"
     inkscape:groupmode="layer"
     id="layer1"
     transform="translate(795.03125,-8.4161888)">
    <path
       style="fill:#000000;stroke:#000000;stroke-width:1px;stroke-linecap:butt;stroke-linejoin:miter;stroke-opacity:1"
       d="M 1651.4286,45.482823 z"
       id="path3014"
       inkscape:connector-curvature="0"
       transform="translate(-795.03125,90.447982)" />
    <path
       style="fill:none;stroke:#000000;stroke-width:1px;stroke-linecap:butt;stroke-linejoin:miter;stroke-opacity:1"
       d="m 1788.5714,65.482823 5.7143,8.571429 L 1760,-8.8028913 c 0,0 2.8571,-2.8571427 -91.4286,-2.8571427 l 74.2857,137.142854 217.1429,22.85715 31.4286,14.28571 214.2857,5.71429 42.8571,-37.14286 L 2180,68.339966 l -188.5714,-20 -57.1429,28.571428 -142.8571,2.857143 0,0"
       id="path3016"
       inkscape:connector-curvature="0"
       transform="translate(-795.03125,90.447982)" />
    <path
       style="fill:none;stroke:#000000;stroke-width:1px;stroke-linecap:butt;stroke-linejoin:miter;stroke-opacity:1"
       d="m 2008.5714,171.19711 -31.4285,40 -42.8572,-2.85714 0,0 0,0 225.7143,14.28571 0,0"
       id="path3018"
       inkscape:connector-curvature="0"
       transform="translate(-795.03125,90.447982)" />
    <path
       style="fill:none;stroke:#000000;stroke-width:1px;stroke-linecap:butt;stroke-linejoin:miter;stroke-opacity:1"
       d="m 2122.8571,216.91139 25.7143,-48.57142 0,0"
       id="path3020"
       inkscape:connector-curvature="0"
       transform="translate(-795.03125,90.447982)" />
    <path
       style="fill:none;stroke:#000000;stroke-width:1px;stroke-linecap:butt;stroke-linejoin:miter;stroke-opacity:1"
       d="m 1991.4286,56.911394 -45.7143,28.571429 c 0,0 108.5714,22.857147 105.7143,22.857147 -2.8572,0 -2.8572,0 -2.8572,0 l 22.8572,-37.142861 z"
       id="path3022"
       inkscape:connector-curvature="0"
       transform="translate(-795.03125,90.447982)" />
    <path
       style="fill:none;stroke:#000000;stroke-width:1px;stroke-linecap:butt;stroke-linejoin:miter;stroke-opacity:1"
       d="M 2082.8571,76.911394 2060,116.91139 l 117.1429,5.71429 -22.8572,-45.714286 -54.2857,0 54.2857,2.857143 20,42.857143 48.5714,-14.28571 0,0 -40,-37.142861 -31.4285,8.571428 0,0 8.5714,-2.857143"
       id="path3024"
       inkscape:connector-curvature="0"
       transform="translate(-795.03125,90.447982)" />
    <path
       style="fill:none;stroke:#000000;stroke-width:1px;stroke-linecap:butt;stroke-linejoin:miter;stroke-opacity:1"
       d="M 2074.2857,48.339966 z"
       id="path3026"
       inkscape:connector-curvature="0"
       transform="translate(-795.03125,90.447982)" />
    <path
       transform="translate(-506.45977,-338.12346)"
       sodipodi:type="arc"
       style="fill:#000000;stroke:#000000;stroke-width:1.5;stroke-miterlimit:4;stroke-opacity:1;stroke-dasharray:none"
       id="path3032-3"
       sodipodi:cx="1805.7142"
       sodipodi:cy="474.05426"
       sodipodi:rx="11.428572"
       sodipodi:ry="8.5714283"
       d="m 1817.1428,474.05426 c 0,4.73387 -5.1167,8.57143 -11.4286,8.57143 -6.3118,0 -11.4285,-3.83756 -11.4285,-8.57143 0,-4.73387 5.1167,-8.57143 11.4285,-8.57143 6.3119,0 11.4286,3.83756 11.4286,8.57143 z" />
    <path
       sodipodi:type="arc"
       style="fill:#000000;stroke:#000000;stroke-width:1.5;stroke-miterlimit:4;stroke-opacity:1;stroke-dasharray:none"
       id="path3073"
       sodipodi:cx="2090"
       sodipodi:cy="29.768538"
       sodipodi:rx="4.2857141"
       sodipodi:ry="10"
       d="m 2094.2857,29.768538 c 0,5.522847 -1.9188,10 -4.2857,10 -2.3669,0 -4.2857,-4.477153 -4.2857,-10 0,-5.522848 1.9188,-10 4.2857,-10 2.3669,0 4.2857,4.477152 4.2857,10 z"
       transform="translate(-795.03125,90.447982)" />
    <path
       transform="matrix(1.1562704,0,0,1.5824925,-857.30115,-708.27766)"
       sodipodi:type="arc"
       style="fill:#f9f9f9;stroke:#000000;stroke-width:1.5;stroke-miterlimit:4;stroke-opacity:1;stroke-dasharray:none"
       id="path3075-8"
       sodipodi:cx="1842.8572"
       sodipodi:cy="505.48282"
       sodipodi:rx="162.85715"
       sodipodi:ry="31.428572"
       d="m 2005.7143,505.48282 c 0,17.35752 -72.9136,31.42857 -162.8571,31.42857 -89.9435,0 -162.8572,-14.07105 -162.8572,-31.42857 0,-17.35752 72.9137,-31.42857 162.8572,-31.42857 89.9435,0 162.8571,14.07105 162.8571,31.42857 z"
       inkscape:transform-center-y="22.18638"
       inkscape:transform-center-x="4.4223508e-05" />
    <path
       transform="translate(-1262.1742,-380.98057)"
       sodipodi:type="arc"
       style="fill:#f9f9f9;stroke:#000000;stroke-width:1.5;stroke-miterlimit:4;stroke-opacity:1;stroke-dasharray:none"
       id="path3095-5"
       sodipodi:cx="2198.5715"
       sodipodi:cy="516.91138"
       sodipodi:rx="38.57143"
       sodipodi:ry="40"
       d="m 2237.143,516.91138 c 0,22.09139 -17.2691,40 -38.5715,40 -21.3024,0 -38.5714,-17.90861 -38.5714,-40 0,-22.09139 17.269,-40 38.5714,-40 21.3024,0 38.5715,17.90861 38.5715,40 z" />
    <path
       style="fill:none;stroke:#000000;stroke-width:1px;stroke-linecap:butt;stroke-linejoin:miter;stroke-opacity:1"
       d="m 2034.2857,168.33997 c 31.4286,28.57142 28.5714,28.57142 28.5714,28.57142 l 171.4286,11.42858 0,0"
       id="path3115"
       inkscape:connector-curvature="0"
       transform="translate(-795.03125,90.447982)" />
    <path
       style="fill:none;stroke:#000000;stroke-width:1px;stroke-linecap:butt;stroke-linejoin:miter;stroke-opacity:1"
       d="m 2180,199.76854 -25.7143,-40 0,0"
       id="path3117"
       inkscape:connector-curvature="0"
       transform="translate(-795.03125,90.447982)" />
    <path
       style="fill:none;stroke:#000000;stroke-width:1px;stroke-linecap:butt;stroke-linejoin:miter;stroke-opacity:1"
       d="m 2065.7143,196.91139 -45.7143,0"
       id="path3119"
       inkscape:connector-curvature="0"
       transform="translate(-795.03125,90.447982)" />
    <path
       style="fill:none;stroke:#000000;stroke-width:1px;stroke-linecap:butt;stroke-linejoin:miter;stroke-opacity:1"
       d="M 2071.4286,285.48282 z"
       id="path3121"
       inkscape:connector-curvature="0"
       transform="translate(-795.03125,90.447982)" />
    <path
       style="fill:none;stroke:#000000;stroke-width:1px;stroke-linecap:butt;stroke-linejoin:miter;stroke-opacity:1"
       d="m 1754.2857,85.482823 180,14.285714 57.1429,20.000003 260,8.57143 0,0 5.7143,-8.57143"
       id="path3123"
       inkscape:connector-curvature="0"
       transform="translate(-795.03125,90.447982)" />
    <path
       style="fill:none;stroke:#000000;stroke-width:1px;stroke-linecap:butt;stroke-linejoin:miter;stroke-opacity:1"
       d="m 1800,79.768537 c -2.8571,-11.428571 -2.8571,-11.428571 -2.8571,-11.428571 z"
       id="path3145"
       inkscape:connector-curvature="0"
       transform="translate(-795.03125,90.447982)" />
    <path
       style="fill:none;stroke:#000000;stroke-width:1px;stroke-linecap:butt;stroke-linejoin:miter;stroke-opacity:1"
       d="m 1780,85.482823 c -54.2857,-2.857143 -54.2857,-2.857143 -54.2857,-2.857143 l 0,0"
       id="path3147"
       inkscape:connector-curvature="0"
       transform="translate(-795.03125,90.447982)" />
    <path
       style="fill:none;stroke:#000000;stroke-width:1px;stroke-linecap:butt;stroke-linejoin:miter;stroke-opacity:1"
       d="m 2240,125.48282 -20,-22.85714 0,0"
       id="path3151"
       inkscape:connector-curvature="0"
       transform="translate(-795.03125,90.447982)" />
    <path
       style="fill:none;stroke:#000000;stroke-width:1px;stroke-linecap:butt;stroke-linejoin:miter;stroke-opacity:1"
       d="m 2374.2857,222.62568 0,-17.14286"
       id="path3153"
       inkscape:connector-curvature="0"
       transform="translate(-795.03125,90.447982)" />
    <path
       style="fill:#000000;stroke:#000000;stroke-width:4.28571415;stroke-miterlimit:4;stroke-opacity:1;stroke-dasharray:none"
       d="m 2056.317,163.04634 c -61.0032,-1.78485 -65.1611,-2.26392 -81.4286,-9.38227 -15.2433,-6.67016 -28.382,-8.63975 -118.5714,-17.77474 -55.7857,-5.65035 -104,-10.80071 -107.1429,-11.44526 -5.8275,-1.19511 -26.3827,-34.552736 -23.2327,-37.70272 0.9023,-0.902251 47.6416,1.952708 103.8652,6.344355 99.2349,7.751285 103.0603,8.273505 130.7961,17.855805 l 28.5714,9.87099 101.4286,3.80032 c 55.7857,2.09017 113.4286,3.87538 128.0952,3.96712 14.6667,0.0917 26.2381,1.29342 25.7143,2.67038 -0.5238,1.37697 -9.4546,9.73412 -19.8462,18.57143 l -18.8938,16.06785 -22.6776,0 c -14.1852,0 -24.1186,-1.33744 -26.5253,-3.57142 -3.0782,-2.85715 -3.4445,-2.85715 -1.8314,0 1.5315,2.71278 -2.3174,3.45574 -16.0094,3.09023 -9.9142,-0.26465 -46.9544,-1.32759 -82.3115,-2.36207 z"
       id="path3155"
       inkscape:connector-curvature="0"
       transform="translate(-795.03125,90.447982)" />
    <path
       style="fill:none;stroke:#000000;stroke-width:1px;stroke-linecap:butt;stroke-linejoin:miter;stroke-opacity:1"
       d="m 2108.5714,74.054252 c -25.7143,2.857142 -25.7143,2.857142 -25.7143,2.857142 0,0 2.8572,0 0,0 -2.8571,0 -5.7142,0 -5.7142,0 l -14.2858,42.857146 31.4286,11.42857"
       id="path3157"
       inkscape:connector-curvature="0"
       transform="translate(-795.03125,90.447982)" />
    <path
       style="fill:none;stroke:#000000;stroke-width:1px;stroke-linecap:butt;stroke-linejoin:miter;stroke-opacity:1"
       d="m 2014.2857,168.33997 c -28.7584,6.4514 -49.3266,61.65823 0,0 z"
       id="path3163"
       inkscape:connector-curvature="0"
       transform="translate(-795.03125,90.447982)" />
    <path
       style="fill:#917c6f;stroke:#000000;stroke-width:1.5;stroke-miterlimit:4;stroke-opacity:1;stroke-dasharray:none"
       id="path3180"
       d="m 2199.6257,72.948786 c -6.4708,-3.174522 -12.7068,-6.594525 -19.6538,-8.635424 -4.9087,-2.325214 -10.237,-3.139269 -15.433,-4.477131 -5.227,-1.457403 -10.5899,-2.028104 -15.8034,-3.518403 -4.9574,-1.487291 -10.1175,-1.884217 -15.2575,-2.141484 -5.6443,-0.204343 -11.2936,-0.18069 -16.9407,-0.176904 -5.7784,0.1426 -11.4666,0.136113 -17.1727,-0.8101 -5.6559,-1.095535 -11.392,-1.571324 -17.1378,-1.841181 -5.3955,-0.592921 -10.5638,0.05501 -15.8306,1.11842 -5.0814,1.90359 -10.3065,3.125216 -15.6778,3.815001 -2.8143,0.318899 -5.6448,0.417362 -8.4726,0.522413 0,0 2.275,-1.666166 2.275,-1.666166 l 0,0 c 2.8232,-0.110134 5.6491,-0.213692 8.4577,-0.543634 5.368,-0.712699 10.5717,-1.991288 15.67,-3.833454 5.2755,-1.061361 10.4701,-1.62649 15.8674,-1.059024 5.7525,0.279492 11.4931,0.773489 17.1562,1.867892 5.6962,0.926057 11.3824,0.894048 17.1463,0.772309 5.6504,-0.0031 11.3033,-0.02609 16.9506,0.187708 5.1557,0.268383 10.3277,0.689128 15.2971,2.191831 5.2108,1.480102 10.5784,2.040763 15.7964,3.513569 5.2062,1.310999 10.5131,2.196783 15.4325,4.490645 6.9493,2.075943 13.1953,5.51866 19.6924,8.669181 0,0 -2.3617,1.553936 -2.3617,1.553936 z"
       inkscape:connector-curvature="0"
       transform="translate(-795.03125,8.4161888)" />
    <path
       style="fill:#000000;stroke:#000000;stroke-width:4.28571415;stroke-miterlimit:4;stroke-opacity:1;stroke-dasharray:none"
       d="m 2004.8884,128.04126 c -65.6315,-7.04955 -116.1666,-23.98917 -121.5912,-40.758018 -8.2795,-25.594196 62.1122,-46.988904 164.5849,-50.023601 95.1932,-2.819118 173.2426,10.631133 199.1492,34.319355 20.9729,19.17714 -12.6119,40.289214 -83.0811,52.226454 -30.1783,5.11208 -126.9191,7.68829 -159.0618,4.23581 z m 195.8825,-58.81395 c -3.0504,-2.307168 -8.1932,-4.153957 -11.4286,-4.103983 -5.7865,0.0894 -5.792,0.159286 -0.3364,4.285715 3.0504,2.307168 8.1932,4.153957 11.4286,4.103983 5.7865,-0.0894 5.792,-0.159286 0.3364,-4.285715 z m -30.1682,-11.986039 c -21.4688,-6.388424 -90.0179,-10.300925 -110,-6.278353 -9.4286,1.898047 -18.4286,4.7104 -20,6.249672 -1.8664,1.828193 1.1059,1.935439 8.5714,0.309275 15.9326,-3.470476 92.0019,-1.423505 108.8952,2.930292 19.0625,4.912859 30.2243,2.053362 12.5334,-3.210886 z"
       id="path3184"
       inkscape:connector-curvature="0"
       transform="translate(-795.03125,8.4161888)" />
    <path
       style="fill:#000000;stroke:#000000;stroke-width:4.28571415;stroke-miterlimit:4;stroke-opacity:1;stroke-dasharray:none"
       d="m 1989.1741,127.56839 c -63.9028,-11.35864 -102.7713,-25.50717 -106.059,-38.606643 -8.4732,-33.759797 80.7061,-55.467842 211.7733,-51.549924 79.2823,2.369943 125.2954,12.036295 148.554,31.20801 22.6891,18.702272 5.1572,35.916747 -51.4111,50.480347 -39.0474,10.0528 -164.4834,15.28908 -202.8572,8.46821 l 0,0 z m 166.3691,-69.976405 c -0.9494,-0.949404 -3.4137,-1.050908 -5.4762,-0.225563 -2.2793,0.912075 -1.6023,1.589093 1.7262,1.72619 3.0119,0.12406 4.6994,-0.551222 3.75,-1.500627 z m -88.5715,-2.857142 c -0.9494,-0.949405 -3.4137,-1.050909 -5.4762,-0.225564 -2.2792,0.912075 -1.6022,1.589093 1.7262,1.72619 3.0119,0.12406 4.6994,-0.551222 3.75,-1.500626 l 0,0 z m 67.2024,-0.340654 c -5.1071,-0.633791 -13.4643,-0.633791 -18.5714,0 -5.1072,0.63379 -0.9286,1.152347 9.2857,1.152347 10.2143,0 14.3929,-0.518557 9.2857,-1.152347 z m -45.7143,-2.806679 c -3.5357,-0.681008 -9.3214,-0.681008 -12.8571,0 -3.5357,0.681009 -0.6429,1.238197 6.4286,1.238197 7.0714,0 9.9642,-0.557188 6.4285,-1.238197 z"
       id="path3186"
       inkscape:connector-curvature="0"
       transform="translate(-795.03125,8.4161888)" />
    <path
       style="fill:#000000;stroke:#000000;stroke-width:4.28571415;stroke-miterlimit:4;stroke-opacity:1;stroke-dasharray:none"
       d="m 2078.2647,163.17064 c -5.4717,-5.47162 1.2858,-6.70961 36.6237,-6.70961 27.0003,0 38.5714,0.97855 38.5714,3.2619 0,2.37684 -9.4178,2.71102 -34.7097,1.23165 -23.9073,-1.39838 -35.3053,-1.06639 -36.6237,1.06676 -1.0527,1.70335 -2.7905,2.22053 -3.8617,1.1493 z"
       id="path3188"
       inkscape:connector-curvature="0"
       transform="translate(-795.03125,8.4161888)" />
    <path
       style="fill:#000000;stroke:#000000;stroke-width:4.28571415;stroke-miterlimit:4;stroke-opacity:1;stroke-dasharray:none"
       d="m 2002.0313,199.52332 c -10.2143,-0.9641 -30.1429,-5.83872 -44.2858,-10.8325 -23.4017,-8.26304 -32.5235,-9.64559 -101.4285,-15.37303 -99.8307,-8.29801 -108.2346,-9.26549 -102.1592,-11.76081 8.2777,-3.3999 16.4226,-19.80195 16.4342,-33.09498 0.018,-21.18569 -13.3901,-38.539437 -32.5559,-42.134969 -12.6218,-2.367869 -31.9845,5.854528 -38.0779,16.169899 -2.6803,4.5374 -5.5604,8.24122 -6.4001,8.2307 -0.8398,-0.0105 -6.2514,-8.69553 -12.0258,-19.300055 l -10.499,-19.280946 43.3561,1.045329 c 28.276,0.681744 44.0666,2.177387 45.3989,4.30006 1.1235,1.790101 8.6999,19.969015 16.8364,40.397582 8.1365,20.42858 16.0413,37.95151 17.5662,38.93986 1.6135,1.0457 1.1443,2.5018 -1.1221,3.48279 -2.1421,0.92719 28.891,1.37812 68.9625,1.00206 l 72.8571,-0.68374 28.5714,-14.4354 28.5715,-14.43541 85.7142,9.34755 c 47.1429,5.14116 89.5715,9.54804 94.2858,9.79308 8.2964,0.43122 8.2047,0.56133 -2.8572,4.05489 -6.9671,2.20035 -13.3071,2.64109 -16.2407,1.12899 -5.4275,-2.79755 -67.9855,-3.42028 -74.9542,-0.74613 -2.4857,0.95384 -4.5194,4.59309 -4.5194,8.08721 0,3.49412 -3.1523,12.57959 -7.0051,20.18993 -3.8529,7.61034 -6.3485,14.89967 -5.5457,16.19851 1.6085,2.60267 -29.8712,2.44737 -58.8777,-0.29047 l 0,0 z m 59.8007,-27.70427 c 6.5272,-10.41024 11.4923,-19.24741 11.0335,-19.63816 -0.4588,-0.39076 -19.0424,-3.89114 -41.2969,-7.77863 l -40.4627,-7.06816 -21.8658,13.54971 c -12.0261,7.45234 -22.1036,14.61813 -22.3944,15.92398 -0.4656,2.09096 86.3213,22.95474 98.4378,23.66469 2.8242,0.16548 9.3882,-7.23344 16.5485,-18.65343 z"
       id="path3190"
       inkscape:connector-curvature="0"
       transform="translate(-795.03125,8.4161888)" />
    <path
       style="fill:#000000;stroke:#000000;stroke-width:4.28571415;stroke-miterlimit:4;stroke-opacity:1;stroke-dasharray:none"
       d=""
       id="path3192"
       inkscape:connector-curvature="0"
       transform="translate(-795.03125,8.4161888)" />
    <path
       style="fill:#000000;stroke:#000000;stroke-width:4.28571415;stroke-miterlimit:4;stroke-opacity:1;stroke-dasharray:none"
       d=""
       id="path3194"
       inkscape:connector-curvature="0"
       transform="translate(-795.03125,8.4161888)" />
    <path
       style="fill:#000000;stroke:#000000;stroke-width:4.28571415;stroke-miterlimit:4;stroke-opacity:1;stroke-dasharray:none"
       d=""
       id="path3196"
       inkscape:connector-curvature="0"
       transform="translate(-795.03125,8.4161888)" />
    <path
       style="fill:#000000;stroke:#000000;stroke-width:4.28571415;stroke-miterlimit:4;stroke-opacity:1;stroke-dasharray:none"
       d=""
       id="path3198"
       inkscape:connector-curvature="0"
       transform="translate(-795.03125,8.4161888)" />
    <path
       style="fill:#000000;stroke:#000000;stroke-width:4.28571415;stroke-miterlimit:4;stroke-opacity:1;stroke-dasharray:none"
       d=""
       id="path3200"
       inkscape:connector-curvature="0"
       transform="translate(-795.03125,8.4161888)" />
    <path
       style="fill:#000000;stroke:#000000;stroke-width:4.28571415;stroke-miterlimit:4;stroke-opacity:1;stroke-dasharray:none"
       d=""
       id="path3202"
       inkscape:connector-curvature="0"
       transform="translate(-795.03125,8.4161888)" />
    <path
       style="fill:#000000;stroke:#000000;stroke-width:4.28571415;stroke-miterlimit:4;stroke-opacity:1;stroke-dasharray:none"
       d=""
       id="path3204"
       inkscape:connector-curvature="0"
       transform="translate(-795.03125,8.4161888)" />
    <path
       style="fill:#000000;stroke:#000000;stroke-width:4.28571415;stroke-miterlimit:4;stroke-opacity:1;stroke-dasharray:none"
       d=""
       id="path3206"
       inkscape:connector-curvature="0"
       transform="translate(-795.03125,8.4161888)" />
    <path
       style="fill:#000000;stroke:#000000;stroke-width:4.28571415;stroke-miterlimit:4;stroke-opacity:1;stroke-dasharray:none"
       d=""
       id="path3208"
       inkscape:connector-curvature="0"
       transform="translate(-795.03125,8.4161888)" />
    <path
       style="fill:#000000;stroke:#000000;stroke-width:4.28571415;stroke-miterlimit:4;stroke-opacity:1;stroke-dasharray:none"
       d=""
       id="path3210"
       inkscape:connector-curvature="0"
       transform="translate(-795.03125,8.4161888)" />
    <path
       style="fill:#000000;stroke:#000000;stroke-width:4.28571415;stroke-miterlimit:4;stroke-opacity:1;stroke-dasharray:none"
       d=""
       id="path3212"
       inkscape:connector-curvature="0"
       transform="translate(-795.03125,8.4161888)" />
    <path
       style="fill:#000000;stroke:#000000;stroke-width:4.28571415;stroke-miterlimit:4;stroke-opacity:1;stroke-dasharray:none"
       d=""
       id="path3214"
       inkscape:connector-curvature="0"
       transform="translate(-795.03125,8.4161888)" />
    <path
       style="fill:#000000;stroke:#000000;stroke-width:4.28571415;stroke-miterlimit:4;stroke-opacity:1;stroke-dasharray:none"
       d=""
       id="path3216"
       inkscape:connector-curvature="0"
       transform="translate(-795.03125,8.4161888)" />
    <path
       style="fill:#000000;stroke:#000000;stroke-width:4.28571415;stroke-miterlimit:4;stroke-opacity:1;stroke-dasharray:none"
       d=""
       id="path3218"
       inkscape:connector-curvature="0"
       transform="translate(-795.03125,8.4161888)" />
    <path
       style="fill:#000000;stroke:#000000;stroke-width:4.28571415;stroke-miterlimit:4;stroke-opacity:1;stroke-dasharray:none"
       d=""
       id="path3220"
       inkscape:connector-curvature="0"
       transform="translate(-795.03125,8.4161888)" />
    <path
       style="fill:#000000;stroke:#000000;stroke-width:4.28571415;stroke-miterlimit:4;stroke-opacity:1;stroke-dasharray:none"
       d=""
       id="path3222"
       inkscape:connector-curvature="0"
       transform="translate(-795.03125,8.4161888)" />
    <path
       style="fill:#000000;stroke:#000000;stroke-width:4.28571415;stroke-miterlimit:4;stroke-opacity:1;stroke-dasharray:none"
       d="m 2186.8245,205.43603 c -3.7212,-1.46652 0.626,-3.56477 15.237,-7.35438 l 20.4438,-5.30243 7.5552,7.55519 7.5552,7.55519 -22.7922,-0.20081 c -12.5358,-0.11045 -25.1353,-1.12419 -27.999,-2.25276 z"
       id="path3226"
       inkscape:connector-curvature="0"
       transform="translate(-795.03125,8.4161888)" />
    <path
       style="fill:#000000;fill-rule:evenodd;stroke:none"
       d="m 2020,244.62568 c 2.0696,1.82607 -5.8508,14.18811 -17.6794,27.59382 -11.8285,13.40572 -23.1081,22.80368 -25.1777,20.97761 -2.0696,-1.82607 5.8508,-14.18811 17.6794,-27.59382 11.8285,-13.40572 23.1081,-22.80368 25.1777,-20.97761 z"
       id="path3228"
       inkscape:path-effect="#path-effect3230"
       inkscape:original-d="m 2020,244.62568 -42.8571,48.57143"
       inkscape:connector-curvature="0"
       transform="translate(-795.03125,8.4161888)" />
    <path
       style="fill:#000000;fill-rule:evenodd;stroke:none"
       d="m 2151.4286,250.33997 c 2.2548,1.59165 -3.5952,13.76341 -13.058,27.16913 -9.4629,13.40571 -18.9729,22.99394 -21.2277,21.40229 -2.2548,-1.59165 3.5952,-13.76341 13.058,-27.16913 9.4629,-13.40571 18.9729,-22.99394 21.2277,-21.40229 z"
       id="path3232"
       inkscape:path-effect="#path-effect3234"
       inkscape:original-d="m 2151.4286,250.33997 -34.2857,48.57142"
       inkscape:connector-curvature="0"
       transform="translate(-795.03125,8.4161888)" />
    <path
       style="fill:#000000;fill-rule:evenodd;stroke:none"
       d="m 1940,284.62568 c 0.2144,-2.75166 49.6684,-1.14489 110.3884,3.58654 60.72,4.73143 109.826,10.80466 109.6116,13.55632 -0.2144,2.75166 -49.6684,1.14489 -110.3884,-3.58654 -60.72,-4.73143 -109.826,-10.80466 -109.6116,-13.55632 z"
       id="path3236"
       inkscape:path-effect="#path-effect3238"
       inkscape:original-d="m 1940,284.62568 220,17.14286"
       inkscape:connector-curvature="0"
       transform="translate(-795.03125,8.4161888)" />
    <path
       style="fill:#000000;fill-rule:evenodd;stroke:none"
       d="m 2042.8571,247.48282 c 0.5494,-0.39953 1.7062,0.1004 3.264,1.45016 1.5577,1.34977 3.5159,3.55024 5.7179,6.47491 2.202,2.92467 4.6478,6.57356 7.2353,10.73651 2.5875,4.16295 5.3172,8.83915 8.1375,13.74075 -0.3533,-0.0385 -0.708,-0.0772 -1.0638,-0.11617 -5.7244,-0.62652 -11.2157,-1.25923 -16.1783,-1.96769 -4.9625,-0.70847 -9.3959,-1.49356 -13.0551,-2.34688 -3.6593,-0.85333 -6.5444,-1.77489 -8.4657,-2.67171 -1.9213,-0.89683 -2.8792,-1.76805 -2.7346,-2.44273 0.1446,-0.67468 1.3706,-1.07791 3.3981,-1.12859 2.0274,-0.0507 4.8556,0.25206 8.2553,0.91136 3.3996,0.65929 7.3706,1.67513 11.7386,2.96608 4.3681,1.29095 9.1336,2.85613 14.173,4.53614 0.3133,0.10443 0.6258,0.20867 0.9375,0.31267 -3.5155,-3.81012 -6.8109,-7.41835 -9.6971,-10.78171 -2.8861,-3.36335 -5.3626,-6.48264 -7.291,-9.23718 -1.9284,-2.75454 -3.3086,-5.14432 -4.0566,-6.96499 -0.748,-1.82068 -0.8644,-3.0714 -0.315,-3.47093 z"
       id="path3240"
       inkscape:path-effect="#path-effect3242"
       inkscape:original-d="m 2042.8571,247.48282 22.8572,31.42857 -40,-8.57142"
       inkscape:connector-curvature="0"
       transform="translate(-795.03125,8.4161888)" />
    <path
       style="fill:#000000;fill-rule:evenodd;stroke:none"
       d="m 2057.1429,273.19711 c 0.2292,-2.75047 38.8152,-1.78273 86.1295,2.16013 47.3142,3.94285 85.5282,9.37511 85.299,12.12558 -0.2292,2.75047 -38.8152,1.78273 -86.1295,-2.16013 -47.3142,-3.94285 -85.5282,-9.37511 -85.299,-12.12558 z"
       id="path3244"
       inkscape:path-effect="#path-effect3246"
       inkscape:original-d="m 2057.1429,273.19711 171.4285,14.28571"
       inkscape:connector-curvature="0"
       transform="translate(-795.03125,8.4161888)" />
    <path
       style="fill:#000000;fill-rule:evenodd;stroke:none"
       d="m 2177.1429,273.19711 c -2.4686,1.23431 -7.0321,-2.88393 -10.1864,-9.1925 -3.1543,-6.30857 -3.7108,-12.43033 -1.2422,-13.66464 2.4686,-1.23431 7.0321,2.88393 10.1864,9.1925 3.1543,6.30857 3.7108,12.43033 1.2422,13.66464 z"
       id="path3248"
       inkscape:path-effect="#path-effect3250"
       inkscape:original-d="m 2177.1429,273.19711 -11.4286,-22.85714"
       inkscape:connector-curvature="0"
       transform="translate(-795.03125,8.4161888)" />
    <path
       style="fill:#000000;fill-rule:evenodd;stroke:none"
       d="m 2197.1429,516.05425 c -2.7323,-0.39032 -4.3098,-5.1871 -3.5212,-10.7071 0.7886,-5.52 3.646,-9.68322 6.3783,-9.2929 2.7323,0.39032 4.3098,5.1871 3.5212,10.7071 -0.7886,5.52 -3.646,9.68322 -6.3783,9.2929 z"
       id="path3252"
       inkscape:path-effect="#path-effect3254"
       inkscape:original-d="m 2197.1429,516.05425 2.8571,-20"
       inkscape:connector-curvature="0"
       transform="translate(-795.03125,8.4161888)" />
    <path
       style="fill:#000000;fill-rule:evenodd;stroke:none"
       d="m 2157.1429,161.76854 c 2.4686,-1.23431 10.2321,9.28394 17.3292,23.47822 7.0972,14.19429 10.8536,26.71604 8.385,27.95035 -2.4686,1.23431 -10.2321,-9.28394 -17.3292,-23.47822 -7.0972,-14.19429 -10.8536,-26.71604 -8.385,-27.95035 z"
       id="path3256"
       inkscape:path-effect="#path-effect3258"
       inkscape:original-d="m 2157.1429,161.76854 25.7142,51.42857"
       inkscape:connector-curvature="0"
       transform="translate(-795.03125,8.4161888)" />
    <path
       style="fill:#000000;fill-rule:evenodd;stroke:none"
       d="m 2174.2857,153.19711 c 1.6727,-2.19539 16.4702,6.26284 33.0302,18.87998 16.56,12.61714 28.6425,24.63891 26.9698,26.8343 -1.6727,2.19539 -16.4702,-6.26284 -33.0302,-18.87998 -16.56,-12.61714 -28.6425,-24.63891 -26.9698,-26.8343 z"
       id="path3260"
       inkscape:path-effect="#path-effect3262"
       inkscape:original-d="m 2174.2857,153.19711 60,45.71428"
       inkscape:connector-curvature="0"
       transform="translate(-795.03125,8.4161888)" />
    <path
       style="fill:#000000;fill-rule:evenodd;stroke:none"
       d="m 2437.1429,253.19711 c 0.8728,-2.61837 5.4211,-3.46342 10.1525,-1.88628 4.7315,1.57715 7.8631,4.98219 6.9903,7.60056 -0.8728,2.61837 -5.4211,3.46342 -10.1525,1.88628 -4.7315,-1.57715 -7.8631,-4.98219 -6.9903,-7.60056 z"
       id="path3264"
       inkscape:path-effect="#path-effect3266"
       inkscape:original-d="m 2437.1429,253.19711 17.1428,5.71428"
       inkscape:connector-curvature="0"
       transform="translate(-795.03125,8.4161888)" />
    <path
       style="fill:#000000;fill-rule:evenodd;stroke:none"
       d="m 2180,147.48282 c -0.3288,2.74034 -16.5957,3.04438 -36.31,0.67867 -19.7143,-2.36572 -35.4474,-6.50976 -35.1186,-9.2501 0.3288,-2.74034 16.5957,-3.04438 36.31,-0.67867 19.7143,2.36572 35.4474,6.50976 35.1186,9.2501 z"
       id="path3268"
       inkscape:path-effect="#path-effect3270"
       inkscape:original-d="m 2180,147.48282 -71.4286,-8.57143"
       inkscape:connector-curvature="0"
       transform="translate(-795.03125,8.4161888)" />
    <path
       style="fill:#000000;fill-rule:evenodd;stroke:none"
       d="m 2051.4286,133.19711 c 0.3903,-2.73226 14.1471,-3.02975 30.7071,-0.66403 16.56,2.36571 29.6832,6.5032 29.2929,9.23546 -0.3903,2.73226 -14.1471,3.02975 -30.7071,0.66403 -16.56,-2.36571 -29.6832,-6.5032 -29.2929,-9.23546 z"
       id="path3272"
       inkscape:path-effect="#path-effect3274"
       inkscape:original-d="m 2051.4286,133.19711 60,8.57143"
       inkscape:connector-curvature="0"
       transform="translate(-795.03125,8.4161888)" />
    <path
       style="fill:#000000;fill-rule:evenodd;stroke:none"
       d="m 2037.1429,138.91139 c -2.208,-1.656 -2.08,-5.55999 0.2857,-8.71428 2.3657,-3.15428 6.0777,-4.37029 8.2857,-2.71429 2.208,1.656 2.08,5.55999 -0.2857,8.71428 -2.3657,3.15428 -6.0777,4.37029 -8.2857,2.71429 z"
       id="path3276"
       inkscape:path-effect="#path-effect3278"
       inkscape:original-d="m 2037.1429,138.91139 8.5714,-11.42857"
       inkscape:connector-curvature="0"
       transform="translate(-795.03125,8.4161888)" />
    <path
       style="fill:#000000;fill-rule:evenodd;stroke:none"
       d="m 2700,401.76854 c 0.8728,2.61837 -0.3389,5.38341 -2.7046,6.17199 -2.3657,0.78857 -4.994,-0.69648 -5.8668,-3.31485 -0.8728,-2.61837 0.3389,-5.38341 2.7046,-6.17199 2.3657,-0.78857 4.994,0.69648 5.8668,3.31485 z"
       id="path3280"
       inkscape:path-effect="#path-effect3282"
       inkscape:original-d="m 2700,401.76854 -8.5714,2.85714"
       inkscape:connector-curvature="0"
       transform="translate(-795.03125,8.4161888)" />
    <path
       style="fill:#000000;fill-rule:evenodd;stroke:none"
       d="m 2051.4286,136.05425 c -2.4686,-1.2343 -3.8322,-3.51604 -3.0436,-5.09318 0.7886,-1.57714 3.4321,-1.8554 5.9007,-0.6211 2.4686,1.2343 3.8322,3.51604 3.0436,5.09318 -0.7886,1.57714 -3.4321,1.8554 -5.9007,0.6211 z"
       id="path3284"
       inkscape:path-effect="#path-effect3286"
       inkscape:original-d="m 2051.4286,136.05425 2.8571,-5.71428"
       inkscape:connector-curvature="0"
       transform="translate(-795.03125,8.4161888)" />
    <path
       style="fill:#000000;fill-rule:evenodd;stroke:none"
       d="m 2142.8571,133.19711 c -0.2318,0.81132 -2.4191,1.01209 -5.9944,0.69682 -3.5754,-0.31527 -8.5377,-1.14647 -14.416,-2.40899 -7.9571,1.16177 -17.5938,2.22663 -27.9728,3.01639 -13.3557,1.01627 -25.4472,1.38319 -34.2727,1.14713 -8.8254,-0.23607 -14.385,-1.07512 -14.4869,-2.45135 -0.1019,-1.37623 5.3018,-3.02738 14.1937,-4.57585 8.892,-1.54846 21.2721,-2.99425 34.933,-3.97922 10.6162,-0.76544 20.4377,-1.14193 28.4265,-1.16134 6.2181,2.19361 11.2558,4.21955 14.6564,5.8974 3.4005,1.67784 5.165,3.00769 4.9332,3.81901 z"
       id="path3288"
       inkscape:path-effect="#path-effect3290"
       inkscape:original-d="m 2142.8571,133.19711 -20,-5.71429 -77.1428,5.71429"
       inkscape:connector-curvature="0"
       transform="translate(-795.03125,8.4161888)" />
  </g>
</svg>
